<?xml version="1.0" encoding="UTF-8" standalone="no"?>
<!-- Created with Inkscape (http://www.inkscape.org/) -->

<svg
   width="105mm"
   height="50mm"
   viewBox="0 0 105 50"
   version="1.1"
   id="svg8"
   inkscape:version="1.2.2 (b0a84865, 2022-12-01)"
   sodipodi:docname="bell-curve.svg"
   xmlns:inkscape="http://www.inkscape.org/namespaces/inkscape"
   xmlns:sodipodi="http://sodipodi.sourceforge.net/DTD/sodipodi-0.dtd"
   xmlns="http://www.w3.org/2000/svg"
   xmlns:svg="http://www.w3.org/2000/svg"
   xmlns:rdf="http://www.w3.org/1999/02/22-rdf-syntax-ns#"
   xmlns:cc="http://creativecommons.org/ns#"
   xmlns:dc="http://purl.org/dc/elements/1.1/">
  <defs
     id="defs2">
    <marker
       style="overflow:visible"
       id="marker3653"
       refX="0"
       refY="0"
       orient="auto-start-reverse"
       inkscape:stockid="Arrow1"
       markerWidth="4.0606604"
       markerHeight="6.7071066"
       viewBox="0 0 4.0606602 6.7071068"
       inkscape:isstock="true"
       inkscape:collect="always"
       preserveAspectRatio="xMidYMid">
      <path
         style="fill:none;stroke:context-stroke;stroke-width:1;stroke-linecap:butt"
         d="M 3,-3 0,0 3,3"
         id="path3651"
         transform="rotate(180,0.125,0)"
         sodipodi:nodetypes="ccc" />
    </marker>
    <marker
       style="overflow:visible"
       id="marker1160"
       refX="0"
       refY="0"
       orient="auto-start-reverse"
       inkscape:stockid="Arrow1"
       markerWidth="4.0606604"
       markerHeight="6.7071066"
       viewBox="0 0 4.0606602 6.7071068"
       inkscape:isstock="true"
       inkscape:collect="always"
       preserveAspectRatio="xMidYMid">
      <path
         style="fill:none;stroke:context-stroke;stroke-width:1;stroke-linecap:butt"
         d="M 3,-3 0,0 3,3"
         id="path1158"
         transform="rotate(180,0.125,0)"
         sodipodi:nodetypes="ccc" />
    </marker>
    <marker
       style="overflow:visible"
       id="Arrow1"
       refX="0"
       refY="0"
       orient="auto-start-reverse"
       inkscape:stockid="Arrow1"
       markerWidth="4.0606604"
       markerHeight="6.7071066"
       viewBox="0 0 4.0606602 6.7071068"
       inkscape:isstock="true"
       inkscape:collect="always"
       preserveAspectRatio="xMidYMid">
      <path
         style="fill:none;stroke:context-stroke;stroke-width:1;stroke-linecap:butt"
         d="M 3,-3 0,0 3,3"
         id="path5057"
         transform="rotate(180,0.125,0)"
         sodipodi:nodetypes="ccc" />
    </marker>
  </defs>
  <sodipodi:namedview
     id="base"
     pagecolor="#ffffff"
     bordercolor="#666666"
     borderopacity="1.0"
     inkscape:pageopacity="0.0"
     inkscape:pageshadow="2"
     inkscape:zoom="1.9887478"
     inkscape:cx="147.07748"
     inkscape:cy="89.000729"
     inkscape:document-units="mm"
     inkscape:current-layer="layer1"
     showgrid="false"
     showborder="true"
     width="200mm"
     showguides="true"
     inkscape:guide-bbox="true"
     inkscape:window-width="1440"
     inkscape:window-height="900"
     inkscape:window-x="0"
     inkscape:window-y="0"
     inkscape:window-maximized="0"
     inkscape:showpageshadow="2"
     inkscape:pagecheckerboard="0"
     inkscape:deskcolor="#d1d1d1">
    <inkscape:grid
       type="xygrid"
       id="grid815"
       units="mm"
       spacingx="10"
       spacingy="10"
       empspacing="4"
       dotted="false"
       originx="0"
       originy="0" />
  </sodipodi:namedview>
  <metadata
     id="metadata5">
    <rdf:RDF>
      <cc:Work
         rdf:about="">
        <dc:format>image/svg+xml</dc:format>
        <dc:type
           rdf:resource="http://purl.org/dc/dcmitype/StillImage" />
      </cc:Work>
    </rdf:RDF>
  </metadata>
  <g
     inkscape:label="Layer 1"
     inkscape:groupmode="layer"
     id="layer1"
     transform="translate(0,-177)">
    <path
       style="fill:#000000;stroke:#000000;stroke-width:0.310249;stroke-dasharray:none;stroke-opacity:1;marker-start:url(#marker1160);marker-end:url(#Arrow1)"
       d="M 0.47990182,222.98435 H 104.11165"
       id="path187"
       sodipodi:nodetypes="cc" />
    <path
       style="fill:#000000;stroke:#000000;stroke-width:0.3;stroke-dasharray:none;stroke-opacity:1;marker-end:url(#marker3653)"
       d="M 51.799815,222.98435 V 180.83938"
       id="path3649" />
    <path
       id="rect26753"
       style="fill:#fff6d5;fill-opacity:1;stroke:none;stroke-width:0.314514;stroke-dasharray:none;stroke-opacity:1"
       d="m 51.613724,199.2348 c -0.14585,-0.003 -0.290818,-0.003 -0.434599,-0.002 -0.143953,0.001 -0.286476,0.004 -0.428398,0.009 -0.141922,0.005 -0.28278,0.0114 -0.422713,0.0196 -0.139933,0.008 -0.279042,0.0178 -0.417029,0.0295 -0.137987,0.0117 -0.275262,0.0252 -0.411344,0.0403 -0.136083,0.0151 -0.270923,0.0317 -0.405144,0.0501 -0.13422,0.0184 -0.267574,0.0388 -0.399975,0.0605 -0.132401,0.0216 -0.264184,0.0445 -0.394808,0.0693 -0.130624,0.0248 -0.260235,0.0512 -0.389124,0.0791 -0.128888,0.0279 -0.25676,0.0574 -0.383955,0.0884 -0.127196,0.0309 -0.25376,0.0633 -0.379306,0.0971 -0.125545,0.0339 -0.2502,0.0697 -0.374137,0.10646 -0.123937,0.0368 -0.247115,0.0751 -0.369486,0.11472 -0.122372,0.0396 -0.243989,0.0806 -0.364836,0.12299 -0.120847,0.0424 -0.240819,0.0857 -0.360185,0.13074 -0.119366,0.0451 -0.238123,0.0919 -0.35605,0.13953 -0.117927,0.0477 -0.23487,0.0966 -0.3514,0.14676 -0.11653,0.0502 -0.232607,0.10132 -0.347782,0.15399 -0.115176,0.0527 -0.229786,0.10668 -0.343649,0.16175 -0.113863,0.0551 -0.226921,0.11158 -0.339514,0.16898 -0.112593,0.0574 -0.224531,0.11553 -0.335897,0.17519 -0.111365,0.0597 -0.222099,0.12057 -0.332279,0.18241 -0.22036,0.1237 -0.438353,0.25193 -0.654224,0.38396 -0.215871,0.13203 -0.429584,0.26793 -0.641304,0.40773 -0.211721,0.13979 -0.421511,0.28347 -0.629419,0.43046 -0.207909,0.147 -0.414132,0.2975 -0.618567,0.45114 -0.204435,0.15363 -0.406933,0.31003 -0.608232,0.46974 -0.201299,0.1597 -0.401546,0.3226 -0.599963,0.48782 -0.198417,0.16522 -0.39532,0.33318 -0.591179,0.50333 -0.195858,0.17015 -0.39032,0.34225 -0.583943,0.51676 -0.193624,0.17451 -0.386547,0.3514 -0.57826,0.52969 -0.191712,0.17829 -0.38245,0.35801 -0.572574,0.5395 -0.190125,0.18149 -0.379581,0.36469 -0.568441,0.5488 -0.377721,0.36824 -0.752973,0.74094 -1.12758,1.11621 -0.749213,0.75054 -1.495121,1.5109 -2.247408,2.26188 -0.376144,0.37549 -0.753502,0.74857 -1.134298,1.11725 -0.190397,0.18433 -0.381562,0.36755 -0.573608,0.54932 -0.192046,0.18176 -0.385275,0.36191 -0.579293,0.54053 -0.0837,0.0771 -0.16928,0.15444 -0.256832,0.23151 -0.08755,0.0771 -0.176886,0.15395 -0.2682,0.231 -0.182629,0.15409 -0.372854,0.30821 -0.569991,0.46198 -0.197137,0.15378 -0.401443,0.3073 -0.612366,0.46044 -0.210923,0.15314 -0.42817,0.30566 -0.652157,0.45785 -0.223986,0.1522 -0.454586,0.30382 -0.690914,0.45476 -0.236327,0.15093 -0.478624,0.30124 -0.72657,0.45061 -0.247947,0.14938 -0.501318,0.29796 -0.760161,0.44546 -0.258842,0.14749 -0.523182,0.29393 -0.792199,0.43925 -0.269017,0.14531 -0.54267,0.28971 -0.821139,0.43253 -0.278468,0.14282 -0.561846,0.28425 -0.849044,0.42426 -0.287197,0.14002 -0.578643,0.27858 -0.873848,0.41548 -0.295205,0.1369 -0.594097,0.27218 -0.896586,0.40566 -0.30249,0.13348 -0.608205,0.26506 -0.917257,0.39481 -0.309051,0.12974 -0.621485,0.25722 -0.936377,0.38292 -0.314891,0.1257 -0.632387,0.24969 -0.952396,0.37104 -0.320009,0.12134 -0.642462,0.2404 -0.966866,0.35708 -0.324405,0.11668 -0.650707,0.23095 -0.978752,0.34261 -0.328045,0.11167 -0.657606,0.22079 -0.98857,0.32712 -0.330964,0.10633 -0.663676,0.20991 -0.996839,0.31057 -0.333162,0.10066 -0.66685,0.19834 -1.001489,0.29301 -0.334639,0.0947 -0.670228,0.18605 -1.005623,0.2744 -0.335395,0.0883 -0.670711,0.17358 -1.00614,0.25528 -0.33543,0.0817 -0.670881,0.15989 -1.005624,0.23461 -0.334743,0.0747 -0.668669,0.14601 -1.002004,0.21343 -0.333335,0.0674 -0.6661489,0.1309 -0.9973552,0.19068 -0.3312064,0.0598 -0.6607308,0.11561 -0.9890869,0.16743 -0.3283562,0.0518 -0.6555171,0.0996 -0.980302,0.14315 -0.3247848,0.0435 -0.6474073,0.0829 -0.9678995,0.11782 -0.3204923,0.0349 -0.6384685,0.0655 -0.953947,0.0915 -0.3154785,0.026 -0.6287004,0.0474 -0.938444,0.0641 -0.3097436,0.0167 -0.6160363,0.0291 -0.9193237,0.0362 -0.1516437,0.004 -0.3027911,0.006 -0.4526856,0.007 -0.1058792,7.7e-4 -0.2107748,-5e-5 -0.315743,-5.2e-4 v 0.51521 H 51.613724 Z" />
    <path
       id="path26826"
       style="fill:#000000;fill-opacity:1;stroke:none;stroke-width:0.314514;stroke-dasharray:none;stroke-opacity:1"
       d="m 51.613724,198.93404 c -0.146432,-0.003 -0.291733,-0.003 -0.43615,-0.002 -0.146469,0.001 -0.291713,0.004 -0.436149,0.009 -0.144435,0.005 -0.288023,0.0117 -0.430464,0.0202 -0.142442,0.008 -0.283778,0.0185 -0.424264,0.0305 -0.140486,0.0119 -0.280009,0.0254 -0.418579,0.0408 -0.13857,0.0154 -0.276202,0.0329 -0.412895,0.0517 -0.136692,0.0188 -0.272355,0.0389 -0.40721,0.061 -0.134854,0.0221 -0.268987,0.046 -0.402043,0.0713 -0.133055,0.0253 -0.265062,0.0522 -0.396358,0.0806 -0.131296,0.0285 -0.262132,0.0584 -0.391707,0.0899 -0.129576,0.0316 -0.258129,0.0647 -0.386023,0.0992 -0.127894,0.0345 -0.25512,0.0705 -0.381372,0.108 -0.126252,0.0375 -0.251556,0.0764 -0.376205,0.11679 -0.124648,0.0404 -0.248468,0.0824 -0.371553,0.12557 -0.123085,0.0431 -0.245343,0.0875 -0.366903,0.13333 -0.12156,0.0459 -0.242177,0.0931 -0.362252,0.14159 -0.120074,0.0485 -0.239489,0.0983 -0.358117,0.14935 -0.118628,0.0511 -0.236763,0.10303 -0.353984,0.15658 -0.11722,0.0535 -0.23348,0.10837 -0.349333,0.16433 -0.115852,0.056 -0.231192,0.11326 -0.345715,0.17156 -0.114523,0.0583 -0.228348,0.11772 -0.341581,0.17829 -0.113233,0.0606 -0.225981,0.12224 -0.337964,0.185 -0.223965,0.12552 -0.445362,0.25526 -0.664559,0.38912 -0.219197,0.13386 -0.435864,0.27182 -0.650606,0.41341 -0.214742,0.1416 -0.427604,0.28689 -0.638204,0.43564 -0.2106,0.14874 -0.41903,0.301 -0.625802,0.4563 -0.206771,0.1553 -0.411693,0.31364 -0.614949,0.4749 -0.203256,0.16127 -0.404983,0.32533 -0.605131,0.49196 -0.200149,0.16664 -0.398977,0.33604 -0.596346,0.50747 -0.197369,0.17142 -0.393161,0.34474 -0.588078,0.52038 -0.194917,0.17563 -0.389083,0.35352 -0.581877,0.53278 -0.192794,0.17927 -0.38416,0.36029 -0.575158,0.5426 -0.190999,0.18232 -0.381494,0.36609 -0.571025,0.55088 -0.379063,0.36957 -0.755518,0.74332 -1.13068,1.11931 -0.750325,0.75196 -1.495389,1.51214 -2.245858,2.26187 -0.375235,0.37487 -0.751989,0.74732 -1.131197,1.11467 -0.189604,0.18367 -0.379419,0.36581 -0.570508,0.54673 -0.191089,0.18093 -0.383289,0.36036 -0.576192,0.53795 -0.082,0.0755 -0.165747,0.15126 -0.251664,0.22686 -0.08592,0.0756 -0.173809,0.15119 -0.26355,0.22686 -0.179482,0.15134 -0.366469,0.30288 -0.56069,0.45424 -0.19422,0.15135 -0.395878,0.30217 -0.604097,0.4532 -0.208219,0.15103 -0.423446,0.30232 -0.644922,0.45269 -0.221476,0.15037 -0.44917,0.30021 -0.683162,0.44958 -0.233993,0.14937 -0.474084,0.29793 -0.719853,0.44597 -0.245769,0.14803 -0.497156,0.29547 -0.753959,0.44183 -0.256804,0.14636 -0.518901,0.2918 -0.785999,0.43615 -0.267097,0.14435 -0.539319,0.28743 -0.815971,0.42943 -0.276651,0.142 -0.557895,0.28289 -0.843359,0.4222 -0.285464,0.13931 -0.575145,0.27712 -0.868681,0.41341 -0.293535,0.13629 -0.591069,0.27119 -0.891935,0.40411 -0.300866,0.13293 -0.605149,0.26403 -0.912606,0.39326 -0.307456,0.12922 -0.617903,0.25618 -0.931209,0.38137 -0.313306,0.12519 -0.629332,0.24868 -0.947746,0.36949 -0.318414,0.12081 -0.639433,0.23892 -0.962215,0.35501 -0.322782,0.1161 -0.647144,0.22999 -0.973584,0.34107 -0.32644,0.11108 -0.65456,0.21982 -0.983919,0.32556 -0.32936,0.10574 -0.660131,0.20843 -0.991671,0.30851 -0.33154,0.10007 -0.663856,0.19736 -0.996838,0.29145 -0.332983,0.0941 -0.66677,0.18507 -1.000456,0.27285 -0.333686,0.0878 -0.667322,0.17257 -1.000973,0.25374 -0.333651,0.0812 -0.667061,0.15884 -0.999939,0.23306 -0.332876,0.0742 -0.665472,0.14492 -0.996837,0.21187 -0.331364,0.0669 -0.6615225,0.12978 -0.9906365,0.18914 -0.3291139,0.0593 -0.6572782,0.11495 -0.9834025,0.16639 -0.3261242,0.0514 -0.6501545,0.0989 -0.9725504,0.14211 -0.322396,0.0432 -0.642736,0.0821 -0.9606649,0.11679 -0.3179289,0.0347 -0.6334722,0.0652 -0.9461955,0.0909 -0.3127233,0.0258 -0.62288,0.047 -0.929659,0.0636 -0.306779,0.0166 -0.6104427,0.0286 -0.9105387,0.0357 -0.2565025,0.006 -0.5090407,0.006 -0.7601604,0.005 v 0.30179 c 0.1049682,4.7e-4 0.2098638,10e-4 0.315743,5.2e-4 0.1498945,-0.001 0.3010419,-0.003 0.4526856,-0.007 0.3032874,-0.007 0.6095801,-0.0195 0.9193237,-0.0362 0.3097436,-0.0167 0.6229655,-0.0381 0.938444,-0.0641 0.3154785,-0.026 0.6334547,-0.0565 0.953947,-0.0915 0.3204922,-0.0349 0.6431147,-0.0743 0.9678995,-0.11782 0.3247849,-0.0435 0.6519458,-0.0913 0.980302,-0.14315 0.3283561,-0.0518 0.6578805,-0.10764 0.9890869,-0.16743 0.3312063,-0.0598 0.6640202,-0.12327 0.9973552,-0.19068 0.333335,-0.0674 0.667261,-0.13871 1.002004,-0.21343 0.334743,-0.0747 0.670194,-0.15291 1.005624,-0.23461 0.335429,-0.0817 0.670745,-0.16693 1.00614,-0.25528 0.335395,-0.0883 0.670984,-0.17973 1.005623,-0.2744 0.334639,-0.0947 0.668327,-0.19235 1.001489,-0.29301 0.333163,-0.10066 0.665875,-0.20424 0.996839,-0.31057 0.330964,-0.10633 0.660525,-0.21545 0.98857,-0.32712 0.328045,-0.11166 0.654347,-0.22593 0.978752,-0.34261 0.324404,-0.11668 0.646857,-0.23574 0.966866,-0.35708 0.320009,-0.12135 0.637505,-0.24534 0.952396,-0.37104 0.314892,-0.1257 0.627326,-0.25318 0.936377,-0.38292 0.309052,-0.12975 0.614767,-0.26133 0.917257,-0.39481 0.302489,-0.13348 0.601381,-0.26876 0.896586,-0.40566 0.295205,-0.1369 0.586651,-0.27546 0.873848,-0.41548 0.287198,-0.14001 0.570576,-0.28144 0.849044,-0.42426 0.278469,-0.14282 0.552122,-0.28722 0.821139,-0.43253 0.269017,-0.14532 0.533357,-0.29176 0.792199,-0.43925 0.258843,-0.1475 0.512214,-0.29608 0.760161,-0.44546 0.247946,-0.14937 0.490243,-0.29968 0.72657,-0.45061 0.236328,-0.15094 0.466928,-0.30256 0.690914,-0.45476 0.223987,-0.15219 0.441234,-0.30471 0.652157,-0.45785 0.210923,-0.15314 0.415229,-0.30666 0.612366,-0.46044 0.197137,-0.15377 0.387362,-0.30789 0.569991,-0.46198 0.09131,-0.0771 0.180648,-0.15393 0.2682,-0.231 0.08755,-0.0771 0.173133,-0.15445 0.256832,-0.23151 0.194018,-0.17862 0.387247,-0.35877 0.579293,-0.54053 0.192046,-0.18177 0.383211,-0.36499 0.573608,-0.54932 0.380796,-0.36868 0.758154,-0.74176 1.134298,-1.11725 0.752287,-0.75098 1.498195,-1.51134 2.247408,-2.26188 0.374607,-0.37527 0.749859,-0.74797 1.12758,-1.11621 0.18886,-0.18411 0.378316,-0.36731 0.568441,-0.5488 0.190124,-0.18149 0.380862,-0.36121 0.572574,-0.5395 0.191713,-0.17829 0.384636,-0.35518 0.57826,-0.52969 0.193623,-0.17451 0.388085,-0.34661 0.583943,-0.51676 0.195859,-0.17015 0.392762,-0.33811 0.591179,-0.50333 0.198417,-0.16522 0.398664,-0.32812 0.599963,-0.48782 0.201299,-0.15971 0.403797,-0.31611 0.608232,-0.46974 0.204435,-0.15364 0.410658,-0.30414 0.618567,-0.45114 0.207908,-0.14699 0.417698,-0.29067 0.629419,-0.43046 0.21172,-0.1398 0.425433,-0.2757 0.641304,-0.40773 0.215871,-0.13203 0.433864,-0.26026 0.654224,-0.38396 0.11018,-0.0618 0.220914,-0.12275 0.332279,-0.18241 0.111366,-0.0597 0.223304,-0.11778 0.335897,-0.17519 0.112593,-0.0574 0.225651,-0.11391 0.339514,-0.16898 0.113863,-0.0551 0.228473,-0.10907 0.343649,-0.16175 0.115175,-0.0527 0.231252,-0.10379 0.347782,-0.15399 0.11653,-0.0502 0.233473,-0.0991 0.3514,-0.14676 0.117927,-0.0477 0.236684,-0.0945 0.35605,-0.13953 0.119366,-0.0451 0.239338,-0.0884 0.360185,-0.13074 0.120847,-0.0424 0.242464,-0.0834 0.364836,-0.12299 0.122371,-0.0396 0.245549,-0.0779 0.369486,-0.11472 0.123937,-0.0368 0.248592,-0.0726 0.374137,-0.10646 0.125546,-0.0339 0.25211,-0.0662 0.379306,-0.0971 0.127195,-0.0309 0.255067,-0.0605 0.383955,-0.0884 0.128889,-0.0279 0.2585,-0.0543 0.389124,-0.0791 0.130624,-0.0248 0.262407,-0.0476 0.394808,-0.0693 0.132401,-0.0216 0.265755,-0.0421 0.399975,-0.0605 0.134221,-0.0184 0.269061,-0.0351 0.405144,-0.0501 0.136082,-0.0151 0.273357,-0.0286 0.411344,-0.0403 0.137987,-0.0117 0.277096,-0.0212 0.417029,-0.0295 0.139933,-0.008 0.280791,-0.0149 0.422713,-0.0196 0.141922,-0.005 0.284445,-0.008 0.428398,-0.009 0.143781,-0.001 0.288749,-4.9e-4 0.434599,0.002 z" />
    <path
       id="rect26753-4"
       style="fill:#fff6d5;fill-opacity:1;stroke:none;stroke-width:0.314514;stroke-dasharray:none;stroke-opacity:1"
       d="m 51.8857,199.20336 c 0.14585,-0.003 0.290818,-0.003 0.434599,-0.002 0.143953,0.001 0.286476,0.004 0.428398,0.009 0.141922,0.005 0.28278,0.0114 0.422713,0.0196 0.139933,0.008 0.279042,0.0178 0.417029,0.0295 0.137987,0.0117 0.275262,0.0252 0.411344,0.0403 0.136083,0.0151 0.270923,0.0317 0.405144,0.0501 0.13422,0.0184 0.267574,0.0388 0.399974,0.0605 0.132402,0.0216 0.264185,0.0445 0.394808,0.0693 0.130624,0.0248 0.260235,0.0512 0.389125,0.0791 0.128888,0.0279 0.256759,0.0574 0.383955,0.0884 0.127195,0.0309 0.25376,0.0633 0.379305,0.0971 0.125546,0.0339 0.2502,0.0697 0.374137,0.10646 0.123937,0.0368 0.247115,0.0751 0.369486,0.11472 0.122372,0.0396 0.243989,0.0806 0.364836,0.12299 0.120847,0.0424 0.240819,0.0857 0.360185,0.13074 0.119366,0.0451 0.238123,0.0919 0.356051,0.13953 0.117927,0.0477 0.23487,0.0966 0.351399,0.14676 0.11653,0.0502 0.232608,0.10132 0.347783,0.15399 0.115175,0.0527 0.229785,0.10668 0.343649,0.16175 0.113863,0.0551 0.22692,0.11158 0.339514,0.16898 0.112592,0.0574 0.224531,0.11553 0.335897,0.17519 0.111365,0.0597 0.222099,0.12057 0.332279,0.18241 0.22036,0.1237 0.438353,0.25193 0.654224,0.38396 0.215871,0.13203 0.429584,0.26793 0.641304,0.40773 0.21172,0.13979 0.421511,0.28347 0.629419,0.43046 0.207909,0.147 0.414132,0.2975 0.618566,0.45114 0.204435,0.15363 0.406934,0.31003 0.608233,0.46974 0.201298,0.1597 0.401546,0.3226 0.599963,0.48782 0.198417,0.16522 0.39532,0.33318 0.591178,0.50333 0.195859,0.17015 0.390321,0.34225 0.583943,0.51676 0.193624,0.17451 0.386547,0.3514 0.57826,0.52969 0.191712,0.17829 0.38245,0.35801 0.572575,0.5395 0.190125,0.18149 0.379581,0.36469 0.568441,0.5488 0.377721,0.36824 0.752972,0.74094 1.12758,1.11621 0.749212,0.75054 1.49512,1.5109 2.247408,2.26188 0.376143,0.37549 0.753501,0.74857 1.134298,1.11725 0.190397,0.18433 0.381562,0.36755 0.573608,0.54932 0.192046,0.18176 0.385275,0.36191 0.579293,0.54053 0.0837,0.0771 0.16928,0.15444 0.256832,0.23151 0.08755,0.0771 0.176886,0.15395 0.2682,0.231 0.182629,0.15409 0.372854,0.30821 0.569991,0.46198 0.197137,0.15378 0.401443,0.3073 0.612366,0.46044 0.210923,0.15314 0.42817,0.30566 0.652157,0.45785 0.223986,0.1522 0.454586,0.30382 0.690914,0.45476 0.236327,0.15093 0.478624,0.30124 0.72657,0.45061 0.247947,0.14938 0.501318,0.29796 0.760161,0.44546 0.258842,0.14749 0.523182,0.29393 0.792199,0.43925 0.269017,0.14531 0.54267,0.28971 0.821139,0.43253 0.278468,0.14282 0.561846,0.28425 0.849044,0.42426 0.287197,0.14002 0.578643,0.27858 0.873848,0.41548 0.295204,0.1369 0.594097,0.27218 0.896586,0.40566 0.30249,0.13348 0.608205,0.26506 0.917256,0.39481 0.309051,0.12974 0.621485,0.25722 0.936377,0.38292 0.314891,0.1257 0.632388,0.24969 0.952396,0.37104 0.320009,0.12134 0.642462,0.2404 0.966866,0.35708 0.324405,0.11668 0.650707,0.23095 0.978752,0.34261 0.328045,0.11167 0.657607,0.22079 0.98857,0.32712 0.330964,0.10633 0.663676,0.20991 0.996839,0.31057 0.333162,0.10066 0.66685,0.19834 1.001489,0.29301 0.334639,0.0947 0.670228,0.18605 1.005623,0.2744 0.335395,0.0883 0.670711,0.17358 1.00614,0.25528 0.33543,0.0817 0.670881,0.15989 1.005624,0.23461 0.334743,0.0747 0.668669,0.14601 1.002004,0.21343 0.333335,0.0674 0.666149,0.1309 0.997355,0.19068 0.331207,0.0598 0.660731,0.11561 0.989087,0.16743 0.328356,0.0518 0.655517,0.0996 0.980302,0.14315 0.324785,0.0435 0.647408,0.0829 0.9679,0.11782 0.320492,0.0349 0.638468,0.0655 0.953947,0.0915 0.315478,0.026 0.6287,0.0474 0.938444,0.0641 0.309743,0.0167 0.616036,0.0291 0.919323,0.0362 0.151644,0.004 0.302796,0.006 0.452686,0.007 0.10588,7.7e-4 0.21078,-5e-5 0.31574,-5.2e-4 v 0.51521 H 51.8857 Z" />
    <path
       id="path26826-3"
       style="fill:#000000;fill-opacity:1;stroke:none;stroke-width:0.314514;stroke-dasharray:none;stroke-opacity:1"
       d="m 51.8857,198.9026 c 0.146431,-0.003 0.291733,-0.003 0.436149,-0.002 0.14647,0.001 0.291714,0.004 0.436149,0.009 0.144436,0.005 0.288024,0.0117 0.430465,0.0202 0.142442,0.008 0.283777,0.0185 0.424264,0.0305 0.140486,0.0119 0.280009,0.0254 0.418579,0.0408 0.13857,0.0154 0.276202,0.0329 0.412895,0.0517 0.136691,0.0188 0.272354,0.0389 0.40721,0.061 0.134853,0.0221 0.268987,0.046 0.402042,0.0713 0.133055,0.0253 0.265062,0.0522 0.396358,0.0806 0.131296,0.0285 0.262132,0.0584 0.391707,0.0899 0.129576,0.0316 0.258129,0.0647 0.386023,0.0992 0.127894,0.0345 0.25512,0.0705 0.381372,0.108 0.126252,0.0375 0.251556,0.0764 0.376205,0.11679 0.124648,0.0404 0.248468,0.0824 0.371553,0.12557 0.123085,0.0431 0.245343,0.0875 0.366903,0.13333 0.12156,0.0459 0.242177,0.0931 0.362252,0.14159 0.120074,0.0485 0.239489,0.0983 0.358117,0.14935 0.118628,0.0511 0.236763,0.10303 0.353984,0.15658 0.11722,0.0535 0.23348,0.10837 0.349333,0.16433 0.115852,0.056 0.231192,0.11326 0.345715,0.17156 0.114523,0.0583 0.228348,0.11772 0.341581,0.17829 0.113233,0.0606 0.225981,0.12224 0.337964,0.185 0.223965,0.12552 0.445362,0.25526 0.664559,0.38912 0.219197,0.13386 0.435864,0.27182 0.650606,0.41341 0.214742,0.1416 0.427604,0.28689 0.638204,0.43564 0.2106,0.14874 0.41903,0.301 0.625802,0.4563 0.206771,0.1553 0.411693,0.31364 0.614949,0.4749 0.203256,0.16127 0.404983,0.32533 0.605131,0.49196 0.200149,0.16664 0.398977,0.33604 0.596346,0.50747 0.197369,0.17142 0.393161,0.34474 0.588078,0.52038 0.194917,0.17563 0.389083,0.35352 0.581877,0.53278 0.192794,0.17927 0.38416,0.36029 0.575158,0.5426 0.190999,0.18232 0.381494,0.36609 0.571025,0.55088 0.379063,0.36957 0.755518,0.74332 1.13068,1.11931 0.750325,0.75196 1.495389,1.51214 2.245858,2.26187 0.375235,0.37487 0.751989,0.74732 1.131197,1.11467 0.189604,0.18367 0.379419,0.36581 0.570508,0.54673 0.191089,0.18093 0.383289,0.36036 0.576192,0.53795 0.082,0.0755 0.165747,0.15126 0.251664,0.22686 0.08592,0.0756 0.173809,0.15119 0.26355,0.22686 0.179482,0.15134 0.366469,0.30288 0.56069,0.45424 0.19422,0.15135 0.395878,0.30217 0.604097,0.4532 0.208219,0.15103 0.423446,0.30232 0.644922,0.45269 0.221476,0.15037 0.44917,0.30021 0.683162,0.44958 0.233993,0.14937 0.474084,0.29793 0.719853,0.44597 0.245769,0.14803 0.497156,0.29547 0.753959,0.44183 0.256804,0.14636 0.518901,0.2918 0.785999,0.43615 0.267097,0.14435 0.539319,0.28743 0.815971,0.42943 0.276651,0.142 0.557895,0.28289 0.843359,0.4222 0.285464,0.13931 0.575145,0.27712 0.868681,0.41341 0.293535,0.13629 0.591069,0.27119 0.891935,0.40411 0.300866,0.13293 0.605149,0.26403 0.912606,0.39326 0.307456,0.12922 0.617903,0.25618 0.931209,0.38137 0.313306,0.12519 0.629332,0.24868 0.947746,0.36949 0.318414,0.12081 0.639433,0.23892 0.962215,0.35501 0.322782,0.1161 0.647144,0.22999 0.973584,0.34107 0.32644,0.11108 0.65456,0.21982 0.983919,0.32556 0.32936,0.10574 0.660131,0.20843 0.991671,0.30851 0.33154,0.10007 0.663856,0.19736 0.996838,0.29145 0.332983,0.0941 0.66677,0.18507 1.000456,0.27285 0.333686,0.0878 0.667322,0.17257 1.000973,0.25374 0.333651,0.0812 0.667061,0.15884 0.999939,0.23306 0.332876,0.0742 0.665472,0.14492 0.996837,0.21187 0.331364,0.0669 0.661523,0.12978 0.990637,0.18914 0.329113,0.0593 0.657278,0.11495 0.983402,0.16639 0.326124,0.0514 0.650155,0.0989 0.97255,0.14211 0.322396,0.0432 0.642736,0.0821 0.960665,0.11679 0.317929,0.0347 0.633473,0.0652 0.946196,0.0909 0.312723,0.0258 0.62288,0.047 0.929659,0.0636 0.306779,0.0166 0.610443,0.0286 0.910539,0.0357 0.256507,0.006 0.509037,0.006 0.760157,0.005 v 0.30179 c -0.10496,4.7e-4 -0.20986,10e-4 -0.31574,5.2e-4 -0.14989,-0.001 -0.301042,-0.003 -0.452686,-0.007 -0.303287,-0.007 -0.60958,-0.0195 -0.919323,-0.0362 -0.309744,-0.0167 -0.622966,-0.0381 -0.938444,-0.0641 -0.315479,-0.026 -0.633455,-0.0565 -0.953947,-0.0915 -0.320493,-0.0349 -0.643115,-0.0743 -0.9679,-0.11782 -0.324785,-0.0435 -0.651946,-0.0913 -0.980302,-0.14315 -0.328356,-0.0518 -0.65788,-0.10764 -0.989087,-0.16743 -0.331206,-0.0598 -0.66402,-0.12327 -0.997355,-0.19068 -0.333335,-0.0674 -0.667261,-0.13871 -1.002004,-0.21343 -0.334743,-0.0747 -0.670194,-0.15291 -1.005624,-0.23461 -0.335429,-0.0817 -0.670745,-0.16693 -1.00614,-0.25528 -0.335395,-0.0883 -0.670984,-0.17973 -1.005623,-0.2744 -0.334639,-0.0947 -0.668327,-0.19235 -1.001489,-0.29301 -0.333163,-0.10066 -0.665875,-0.20424 -0.996839,-0.31057 -0.330964,-0.10633 -0.660525,-0.21545 -0.98857,-0.32712 -0.328045,-0.11166 -0.654347,-0.22593 -0.978752,-0.34261 -0.324404,-0.11668 -0.646857,-0.23574 -0.966866,-0.35708 -0.320009,-0.12135 -0.637505,-0.24534 -0.952396,-0.37104 -0.314892,-0.1257 -0.627326,-0.25318 -0.936377,-0.38292 -0.309052,-0.12975 -0.614767,-0.26133 -0.917257,-0.39481 -0.302489,-0.13348 -0.601381,-0.26876 -0.896586,-0.40566 -0.295205,-0.1369 -0.586651,-0.27546 -0.873848,-0.41548 -0.287198,-0.14001 -0.570576,-0.28144 -0.849044,-0.42426 -0.278469,-0.14282 -0.552122,-0.28722 -0.821139,-0.43253 -0.269017,-0.14532 -0.533357,-0.29176 -0.792199,-0.43925 -0.258843,-0.1475 -0.512214,-0.29608 -0.760161,-0.44546 -0.247946,-0.14937 -0.490243,-0.29968 -0.72657,-0.45061 -0.236328,-0.15094 -0.466928,-0.30256 -0.690914,-0.45476 -0.223987,-0.15219 -0.441234,-0.30471 -0.652157,-0.45785 -0.210923,-0.15314 -0.415229,-0.30666 -0.612366,-0.46044 -0.197137,-0.15377 -0.387362,-0.30789 -0.569991,-0.46198 -0.09131,-0.0771 -0.180648,-0.15393 -0.2682,-0.231 -0.08755,-0.0771 -0.173133,-0.15445 -0.256832,-0.23151 -0.194018,-0.17862 -0.387247,-0.35877 -0.579293,-0.54053 -0.192046,-0.18177 -0.383211,-0.36499 -0.573608,-0.54932 -0.380796,-0.36868 -0.758154,-0.74176 -1.134298,-1.11725 -0.752287,-0.75098 -1.498195,-1.51134 -2.247408,-2.26188 -0.374607,-0.37527 -0.749859,-0.74797 -1.12758,-1.11621 -0.18886,-0.18411 -0.378316,-0.36731 -0.568441,-0.5488 -0.190124,-0.18149 -0.380862,-0.36121 -0.572574,-0.5395 -0.191713,-0.17829 -0.384636,-0.35518 -0.57826,-0.52969 -0.193623,-0.17451 -0.388085,-0.34661 -0.583943,-0.51676 -0.195859,-0.17015 -0.392762,-0.33811 -0.591179,-0.50333 -0.198417,-0.16522 -0.398664,-0.32812 -0.599963,-0.48782 -0.201299,-0.15971 -0.403797,-0.31611 -0.608232,-0.46974 -0.204435,-0.15364 -0.410658,-0.30414 -0.618567,-0.45114 -0.207908,-0.14699 -0.417698,-0.29067 -0.629419,-0.43046 -0.21172,-0.1398 -0.425433,-0.2757 -0.641304,-0.40773 -0.215871,-0.13203 -0.433864,-0.26026 -0.654224,-0.38396 -0.11018,-0.0618 -0.220914,-0.12275 -0.332279,-0.18241 -0.111365,-0.0597 -0.223304,-0.11778 -0.335897,-0.17519 -0.112593,-0.0574 -0.225651,-0.11391 -0.339514,-0.16898 -0.113863,-0.0551 -0.228473,-0.10907 -0.343649,-0.16175 -0.115175,-0.0527 -0.231252,-0.10379 -0.347782,-0.15399 -0.11653,-0.0502 -0.233473,-0.0991 -0.3514,-0.14676 -0.117927,-0.0477 -0.236684,-0.0945 -0.35605,-0.13953 -0.119366,-0.0451 -0.239338,-0.0884 -0.360185,-0.13074 -0.120847,-0.0424 -0.242464,-0.0834 -0.364836,-0.12299 -0.122371,-0.0396 -0.245549,-0.0779 -0.369486,-0.11472 -0.123937,-0.0368 -0.248592,-0.0726 -0.374137,-0.10646 -0.125546,-0.0339 -0.25211,-0.0662 -0.379306,-0.0971 -0.127195,-0.0309 -0.255067,-0.0605 -0.383955,-0.0884 -0.128889,-0.0279 -0.2585,-0.0543 -0.389124,-0.0791 -0.130624,-0.0248 -0.262407,-0.0476 -0.394808,-0.0693 -0.132401,-0.0216 -0.265755,-0.0421 -0.399975,-0.0605 -0.134221,-0.0184 -0.269061,-0.0351 -0.405144,-0.0501 -0.136082,-0.0151 -0.273357,-0.0286 -0.411344,-0.0403 -0.137987,-0.0117 -0.277096,-0.0212 -0.417029,-0.0295 -0.139933,-0.008 -0.280791,-0.0149 -0.422713,-0.0196 -0.141922,-0.005 -0.284445,-0.008 -0.428398,-0.009 -0.143781,-0.001 -0.288749,-4.9e-4 -0.434599,0.002 z" />
    <text
       xml:space="preserve"
       style="font-size:5.29167px;fill:#000000;fill-opacity:1;stroke:none;stroke-width:0.3;stroke-dasharray:none;stroke-opacity:1"
       x="8.2484913"
       y="191.9005"
       id="text29944"><tspan
         sodipodi:role="line"
         id="tspan29942"
         style="stroke-width:0.3"
         x="8.2484913"
         y="191.9005">$f(x)=e^{-x^2}$</tspan></text>
  </g>
</svg>
