<?xml version="1.0" encoding="UTF-8" standalone="no"?>
<!-- Created with Inkscape (http://www.inkscape.org/) -->

<svg
   width="100mm"
   height="100mm"
   viewBox="0 0 100 100"
   version="1.1"
   id="svg8"
   inkscape:version="1.2.2 (b0a84865, 2022-12-01)"
   sodipodi:docname="exponential-versus-linear.svg"
   xmlns:inkscape="http://www.inkscape.org/namespaces/inkscape"
   xmlns:sodipodi="http://sodipodi.sourceforge.net/DTD/sodipodi-0.dtd"
   xmlns="http://www.w3.org/2000/svg"
   xmlns:svg="http://www.w3.org/2000/svg"
   xmlns:rdf="http://www.w3.org/1999/02/22-rdf-syntax-ns#"
   xmlns:cc="http://creativecommons.org/ns#"
   xmlns:dc="http://purl.org/dc/elements/1.1/">
  <defs
     id="defs2">
    <marker
       style="overflow:visible"
       id="marker1325"
       refX="0"
       refY="0"
       orient="auto-start-reverse"
       inkscape:stockid="Arrow1"
       markerWidth="4.0606604"
       markerHeight="6.7071066"
       viewBox="0 0 4.0606602 6.7071068"
       inkscape:isstock="true"
       inkscape:collect="always"
       preserveAspectRatio="xMidYMid">
      <path
         style="fill:none;stroke:context-stroke;stroke-width:1;stroke-linecap:butt"
         d="M 3,-3 0,0 3,3"
         id="path1323"
         transform="rotate(180,0.125,0)"
         sodipodi:nodetypes="ccc" />
    </marker>
    <marker
       style="overflow:visible"
       id="marker1225"
       refX="0"
       refY="0"
       orient="auto-start-reverse"
       inkscape:stockid="Arrow1"
       markerWidth="4.0606604"
       markerHeight="6.7071066"
       viewBox="0 0 4.0606602 6.7071068"
       inkscape:isstock="true"
       inkscape:collect="always"
       preserveAspectRatio="xMidYMid">
      <path
         style="fill:none;stroke:context-stroke;stroke-width:1;stroke-linecap:butt"
         d="M 3,-3 0,0 3,3"
         id="path1223"
         transform="rotate(180,0.125,0)"
         sodipodi:nodetypes="ccc" />
    </marker>
    <marker
       style="overflow:visible"
       id="marker1135"
       refX="0"
       refY="0"
       orient="auto-start-reverse"
       inkscape:stockid="Arrow1"
       markerWidth="4.0606604"
       markerHeight="6.7071066"
       viewBox="0 0 4.0606602 6.7071068"
       inkscape:isstock="true"
       inkscape:collect="always"
       preserveAspectRatio="xMidYMid">
      <path
         style="fill:none;stroke:context-stroke;stroke-width:1;stroke-linecap:butt"
         d="M 3,-3 0,0 3,3"
         id="path1133"
         transform="rotate(180,0.125,0)"
         sodipodi:nodetypes="ccc" />
    </marker>
    <marker
       style="overflow:visible"
       id="Arrow1"
       refX="0"
       refY="0"
       orient="auto-start-reverse"
       inkscape:stockid="Arrow1"
       markerWidth="4.0606604"
       markerHeight="6.7071066"
       viewBox="0 0 4.0606602 6.7071068"
       inkscape:isstock="true"
       inkscape:collect="always"
       preserveAspectRatio="xMidYMid">
      <path
         style="fill:none;stroke:context-stroke;stroke-width:1;stroke-linecap:butt"
         d="M 3,-3 0,0 3,3"
         id="path5057"
         transform="rotate(180,0.125,0)"
         sodipodi:nodetypes="ccc" />
    </marker>
    <marker
       style="overflow:visible"
       id="marker1363"
       refX="0"
       refY="0"
       orient="auto-start-reverse"
       inkscape:stockid="Arrow2"
       markerWidth="7.6999998"
       markerHeight="5.5999999"
       viewBox="0 0 7.7 5.6"
       inkscape:isstock="true"
       inkscape:collect="always"
       preserveAspectRatio="xMidYMid">
      <path
         transform="scale(0.7)"
         d="M -2,-4 9,0 -2,4 c 2,-2.33 2,-5.66 0,-8 z"
         style="fill:context-stroke;fill-rule:evenodd;stroke:none"
         id="path1361" />
    </marker>
    <marker
       style="overflow:visible"
       id="Arrow2"
       refX="0"
       refY="0"
       orient="auto-start-reverse"
       inkscape:stockid="Arrow2"
       markerWidth="7.6999998"
       markerHeight="5.5999999"
       viewBox="0 0 7.7 5.6"
       inkscape:isstock="true"
       inkscape:collect="always"
       preserveAspectRatio="xMidYMid">
      <path
         transform="scale(0.7)"
         d="M -2,-4 9,0 -2,4 c 2,-2.33 2,-5.66 0,-8 z"
         style="fill:context-stroke;fill-rule:evenodd;stroke:none"
         id="arrow2L" />
    </marker>
  </defs>
  <sodipodi:namedview
     id="base"
     pagecolor="#ffffff"
     bordercolor="#666666"
     borderopacity="1.0"
     inkscape:pageopacity="0.0"
     inkscape:pageshadow="2"
     inkscape:zoom="1.406257"
     inkscape:cx="181.33243"
     inkscape:cy="152.88813"
     inkscape:document-units="mm"
     inkscape:current-layer="layer1"
     showgrid="false"
     showborder="true"
     width="200mm"
     showguides="true"
     inkscape:guide-bbox="true"
     inkscape:window-width="969"
     inkscape:window-height="872"
     inkscape:window-x="469"
     inkscape:window-y="0"
     inkscape:window-maximized="0"
     inkscape:showpageshadow="2"
     inkscape:pagecheckerboard="0"
     inkscape:deskcolor="#d1d1d1">
    <inkscape:grid
       type="xygrid"
       id="grid815"
       units="mm"
       spacingx="10"
       spacingy="10"
       empspacing="4"
       dotted="false"
       originx="0"
       originy="0" />
  </sodipodi:namedview>
  <metadata
     id="metadata5">
    <rdf:RDF>
      <cc:Work
         rdf:about="">
        <dc:format>image/svg+xml</dc:format>
        <dc:type
           rdf:resource="http://purl.org/dc/dcmitype/StillImage" />
      </cc:Work>
    </rdf:RDF>
  </metadata>
  <g
     inkscape:label="Layer 1"
     inkscape:groupmode="layer"
     id="layer1"
     transform="translate(0,-177)">
    <path
       style="fill:none;stroke:#000000;stroke-width:0.3;marker-end:url(#Arrow2)"
       d="m 4.70368,227.001 c 0.15002,0 0.30003,-0.001 0.45004,-0.002 l 0.45004,-0.003 c 0.15002,-0.001 0.30003,-0.002 0.45004,-0.002 l 0.45004,-0.003 0.45004,-0.003 c 0.15002,-0.001 0.30003,-0.003 0.45005,-0.004 l 0.45004,-0.003 c 0.15001,-0.001 0.30002,-0.002 0.45004,-0.004 l 0.45004,-0.003 c 0.15001,-0.002 0.30002,-0.003 0.45004,-0.004 0.15001,-0.002 0.30002,-0.003 0.45004,-0.004 0.15001,-0.002 0.30002,-0.003 0.45007,-0.005 0.15,-0.001 0.3,-0.003 0.45,-0.005 0.15,-10e-4 0.3,-0.003 0.45,-0.004 l 0.4501,-0.006 c 0.15,-0.001 0.3,-0.003 0.45,-0.005 l 0.4501,-0.006 0.45,-0.006 0.4501,-0.006 c 0.15,-0.002 0.3,-0.005 0.45,-0.007 0.15,-0.002 0.3,-0.005 0.45,-0.007 0.15,-0.002 0.3001,-0.005 0.4501,-0.007 0.15,-0.003 0.3,-0.006 0.45,-0.008 0.15,-0.003 0.3,-0.006 0.4501,-0.009 0.15,-0.002 0.3,-0.005 0.45,-0.008 l 0.45,-0.009 c 0.15,-0.004 0.3001,-0.007 0.4501,-0.01 0.15,-0.003 0.3,-0.007 0.45,-0.01 0.15,-0.004 0.3,-0.007 0.4501,-0.011 l 0.45,-0.012 c 0.15,-0.003 0.3,-0.007 0.45,-0.011 0.1501,-0.005 0.3001,-0.009 0.4501,-0.013 0.15,-0.004 0.3,-0.009 0.45,-0.013 0.15,-0.005 0.3,-0.01 0.4501,-0.014 l 0.45,-0.015 c 0.15,-0.005 0.3,-0.01 0.45,-0.016 0.1501,-0.005 0.3001,-0.011 0.4501,-0.016 0.15,-0.006 0.3,-0.012 0.45,-0.017 0.15,-0.006 0.3,-0.012 0.4501,-0.019 0.15,-0.006 0.3,-0.012 0.45,-0.019 0.15,-0.006 0.3,-0.013 0.45,-0.02 0.1501,-0.007 0.3001,-0.014 0.4501,-0.021 0.15,-0.008 0.3,-0.015 0.45,-0.023 0.15,-0.008 0.3001,-0.016 0.4501,-0.024 0.15,-0.008 0.3,-0.016 0.45,-0.025 0.15,-0.008 0.3,-0.017 0.45,-0.026 0.1501,-0.009 0.3001,-0.018 0.4501,-0.028 0.15,-0.009 0.3,-0.019 0.45,-0.029 0.15,-0.01 0.3001,-0.02 0.4501,-0.031 0.15,-0.01 0.3,-0.021 0.45,-0.032 0.15,-0.011 0.3,-0.023 0.45,-0.034 0.1501,-0.012 0.3001,-0.024 0.4501,-0.037 0.15,-0.012 0.3,-0.025 0.45,-0.038 0.15,-0.013 0.3001,-0.026 0.4501,-0.04 0.15,-0.013 0.3,-0.028 0.45,-0.042 0.15,-0.014 0.3,-0.029 0.4501,-0.045 0.15,-0.015 0.3,-0.03 0.45,-0.046 0.15,-0.017 0.3,-0.033 0.45,-0.05 0.15,-0.017 0.3001,-0.034 0.4501,-0.052 0.15,-0.018 0.3,-0.036 0.45,-0.055 0.15,-0.019 0.3,-0.038 0.4501,-0.058 0.15,-0.02 0.3,-0.04 0.45,-0.061 0.15,-0.021 0.3,-0.042 0.45,-0.064 0.15,-0.022 0.3001,-0.045 0.4501,-0.068 0.15,-0.023 0.3,-0.047 0.45,-0.072 0.15,-0.024 0.3,-0.049 0.4501,-0.075 0.15,-0.026 0.3,-0.052 0.45,-0.079 0.15,-0.028 0.3,-0.055 0.45,-0.084 0.1501,-0.029 0.3001,-0.058 0.4501,-0.088 l 0.45,-0.093 c 0.15,-0.032 0.3,-0.065 0.4501,-0.098 0.15,-0.034 0.3,-0.068 0.45,-0.104 0.15,-0.035 0.3,-0.071 0.45,-0.108 0.1501,-0.038 0.3001,-0.076 0.4501,-0.115 0.15,-0.039 0.3,-0.08 0.45,-0.121 0.15,-0.041 0.3,-0.084 0.4501,-0.128 0.15,-0.043 0.3,-0.088 0.45,-0.134 0.15,-0.046 0.3,-0.093 0.45,-0.141 0.1501,-0.049 0.3001,-0.099 0.4501,-0.15 0.15,-0.051 0.3,-0.103 0.45,-0.157 0.15,-0.054 0.3001,-0.109 0.4501,-0.166 0.15,-0.056 0.3,-0.115 0.45,-0.174 0.15,-0.06 0.3,-0.122 0.45,-0.185 0.1501,-0.063 0.3001,-0.127 0.4501,-0.194 0.15,-0.066 0.3,-0.134 0.45,-0.204 0.15,-0.07 0.3001,-0.142 0.4501,-0.216 0.15,-0.074 0.3,-0.149 0.45,-0.227 0.15,-0.078 0.3,-0.158 0.45,-0.24 0.1501,-0.082 0.3001,-0.166 0.4501,-0.252 0.15,-0.086 0.3,-0.175 0.45,-0.266 0.15,-0.091 0.3001,-0.185 0.4501,-0.281 0.15,-0.096 0.3,-0.194 0.45,-0.295 0.15,-0.101 0.3,-0.205 0.4501,-0.312 0.15,-0.106 0.3,-0.216 0.45,-0.328 0.15,-0.112 0.3,-0.228 0.45,-0.346 0.15,-0.118 0.3001,-0.24 0.4501,-0.365 0.15,-0.125 0.3,-0.253 0.45,-0.384 0.15,-0.132 0.3,-0.267 0.4501,-0.405 0.15,-0.139 0.3,-0.281 0.45,-0.427 0.15,-0.147 0.3,-0.297 0.45,-0.451 0.15,-0.154 0.3001,-0.312 0.4501,-0.474 0.15,-0.162 0.3,-0.329 0.45,-0.5 0.15,-0.171 0.3,-0.347 0.4501,-0.527 0.15,-0.18 0.3,-0.365 0.45,-0.555 0.15,-0.19 0.3,-0.385 0.45,-0.586 0.1501,-0.2 0.3001,-0.406 0.4501,-0.617 0.15,-0.211 0.3,-0.428 0.45,-0.65 0.15,-0.223 0.3,-0.451 0.4501,-0.685 0.15,-0.235 0.3,-0.476 0.45,-0.723 0.15,-0.247 0.3,-0.501 0.45,-0.761 0.1501,-0.261 0.3001,-0.528 0.4501,-0.803 0.15,-0.274 0.3,-0.556 0.45,-0.846 0.15,-0.289 0.3,-0.586 0.4501,-0.891 0.15,-0.305 0.3,-0.618 0.45,-0.94 0.15,-0.321 0.3,-0.651 0.45,-0.99 0.1501,-0.339 0.3001,-0.687 0.4501,-1.044 0.15,-0.357 0.3,-0.723 0.45,-1.1 0.15,-0.376 0.3001,-0.763 0.4501,-1.159 0.15,-0.397 0.3,-0.804 0.45,-1.222 0.15,-0.418 0.3,-0.848 0.45,-1.288 0.1501,-0.441 0.3001,-0.893 0.4501,-1.358 0.15,-0.464 0.3,-0.941 0.45,-1.431 0.15,-0.489 0.3001,-0.992 0.4501,-1.508 0.15,-0.516 0.3,-1.045 0.45,-1.589 0.15,-0.544 0.3,-1.102 0.45,-1.675 0.1501,-0.574 0.3001,-1.162 0.4501,-1.766 0.15,-0.604 0.3,-1.224 0.45,-1.861 0.15,-0.637 0.3001,-1.29 0.4501,-1.962 0.15,-0.671 0.3,-1.359 0.45,-2.067 0.15,-0.707 0.3,-1.433 0.4501,-2.179 0.15,-0.745 0.3,-1.51 0.45,-2.296"
       id="path516" />
    <path
       style="fill:none;stroke:#000000;stroke-width:0.3;marker-end:url(#Arrow1);marker-start:url(#marker1135)"
       d="M 49.4827,269.851 V 184.244"
       id="path514" />
    <path
       style="fill:none;stroke:#000000;stroke-width:0.3;marker-start:url(#marker1225);marker-end:url(#marker1325)"
       d="m 4.70368,227.047 h 89.5581"
       id="path432" />
    <path
       style="fill:none;stroke:#000000;stroke-width:0.3;marker-end:url(#marker1363)"
       d="m 66.0268,210.715 0.45,-0.45 c 0.15,-0.15 0.3001,-0.3 0.4501,-0.45 l 0.45,-0.45 c 0.15,-0.15 0.3,-0.3 0.4501,-0.45 l 0.45,-0.45 0.45,-0.45 c 0.15,-0.151 0.3001,-0.301 0.4501,-0.451 l 0.45,-0.45 c 0.15,-0.15 0.3,-0.3 0.4501,-0.45 l 0.45,-0.45 0.45,-0.45 c 0.15,-0.15 0.3001,-0.3 0.4501,-0.45 l 0.45,-0.45 c 0.15,-0.15 0.3,-0.3 0.4501,-0.45 l 0.45,-0.45 0.45,-0.45 c 0.1501,-0.15 0.3001,-0.3 0.4501,-0.45 l 0.45,-0.45 c 0.15,-0.15 0.3,-0.3 0.4501,-0.45 l 0.45,-0.45 0.45,-0.45 c 0.1501,-0.15 0.3001,-0.3 0.4501,-0.45 l 0.45,-0.45 c 0.15,-0.15 0.3,-0.3 0.4501,-0.45 l 0.45,-0.45 0.45,-0.45 c 0.1501,-0.15 0.3001,-0.3 0.4501,-0.45 l 0.45,-0.45 c 0.15,-0.15 0.3001,-0.3 0.4501,-0.45 l 0.45,-0.45 c 0.15,-0.15 0.3,-0.3 0.45,-0.451 0.1501,-0.15 0.3001,-0.3 0.4501,-0.45 l 0.45,-0.45 c 0.15,-0.15 0.3001,-0.3 0.4501,-0.45 l 0.45,-0.45 0.45,-0.45 c 0.1501,-0.15 0.3001,-0.3 0.4501,-0.45 l 0.45,-0.45 c 0.15,-0.15 0.3001,-0.3 0.4501,-0.45 l 0.45,-0.45 c 0.15,-0.15 0.3,-0.3 0.4501,-0.45 l 0.45,-0.45 0.45,-0.45 c 0.15,-0.15 0.3001,-0.3 0.4501,-0.45 l 0.45,-0.45 c 0.15,-0.15 0.3,-0.3 0.4501,-0.45 l 0.45,-0.45 0.45,-0.45 c 0.15,-0.15 0.3001,-0.3 0.4501,-0.45 l 0.45,-0.45 c 0.15,-0.15 0.3,-0.3 0.4501,-0.45 l 0.45,-0.45 0.45,-0.45 c 0.1501,-0.15 0.3001,-0.3 0.4501,-0.45 l 0.45,-0.45 c 0.15,-0.15 0.3,-0.301 0.4501,-0.451 l 0.45,-0.45 0.45,-0.45 c 0.1501,-0.15 0.3001,-0.3 0.4501,-0.45 l 0.45,-0.45 c 0.15,-0.15 0.3,-0.3 0.4501,-0.45 l 0.45,-0.45 0.45,-0.45"
       id="path532" />
    <path
       style="fill:none;stroke:#000000;stroke-width:0.3;marker-start:url(#marker1363)"
       d="m 15.1722,261.569 0.45,-0.45 c 0.1501,-0.15 0.3001,-0.3 0.4501,-0.45 l 0.45,-0.45 c 0.15,-0.15 0.3001,-0.3 0.4501,-0.45 l 0.45,-0.45 c 0.15,-0.15 0.3,-0.3 0.4501,-0.45 l 0.45,-0.45 0.45,-0.45 c 0.15,-0.15 0.3001,-0.3 0.4501,-0.45 l 0.45,-0.45 c 0.15,-0.15 0.3,-0.3 0.4501,-0.45 l 0.45,-0.45 0.45,-0.45 c 0.15,-0.15 0.3001,-0.3 0.4501,-0.45 l 0.45,-0.45 c 0.15,-0.15 0.3,-0.3 0.4501,-0.45 l 0.45,-0.45 0.45,-0.45 c 0.1501,-0.15 0.3001,-0.3 0.4501,-0.45 l 0.45,-0.45 c 0.15,-0.15 0.3,-0.301 0.4501,-0.451 l 0.45,-0.45 0.45,-0.45 c 0.1501,-0.15 0.3001,-0.3 0.4501,-0.45 l 0.45,-0.45 c 0.15,-0.15 0.3,-0.3 0.4501,-0.45 l 0.45,-0.45 0.45,-0.45 c 0.1501,-0.15 0.3001,-0.3 0.4501,-0.45 l 0.45,-0.45 c 0.15,-0.15 0.3001,-0.3 0.4501,-0.45 l 0.45,-0.45 0.45,-0.45 c 0.1501,-0.15 0.3001,-0.3 0.4501,-0.45 l 0.45,-0.45 c 0.15,-0.15 0.3001,-0.3 0.4501,-0.45 l 0.45,-0.45 0.45,-0.45 c 0.1501,-0.15 0.3001,-0.3 0.4501,-0.45 l 0.45,-0.45 c 0.15,-0.15 0.3001,-0.3 0.4501,-0.45 l 0.45,-0.45 c 0.15,-0.15 0.3,-0.3 0.4501,-0.45 l 0.45,-0.45 0.45,-0.45 c 0.15,-0.151 0.3001,-0.301 0.4501,-0.451 l 0.45,-0.45 c 0.15,-0.15 0.3,-0.3 0.4501,-0.45 l 0.45,-0.45 0.45,-0.45 c 0.15,-0.15 0.3001,-0.3 0.4501,-0.45 l 0.45,-0.45 c 0.15,-0.15 0.3,-0.3 0.4501,-0.45 l 0.45,-0.45 0.45,-0.45 c 0.1501,-0.15 0.3001,-0.3 0.4501,-0.45 l 0.45,-0.45 c 0.15,-0.15 0.3,-0.3 0.4501,-0.45 l 0.45,-0.45 0.45,-0.45 c 0.1501,-0.15 0.3001,-0.3 0.4501,-0.45 l 0.45,-0.45 c 0.15,-0.15 0.3,-0.3 0.4501,-0.45 l 0.45,-0.45 0.45,-0.45 c 0.1501,-0.15 0.3001,-0.3 0.4501,-0.45 l 0.45,-0.45 c 0.15,-0.15 0.3001,-0.3 0.4501,-0.45 l 0.45,-0.45 c 0.15,-0.15 0.3,-0.3 0.45,-0.451 0.1501,-0.15 0.3001,-0.3 0.4501,-0.45 l 0.45,-0.45 c 0.15,-0.15 0.3001,-0.3 0.4501,-0.45 l 0.45,-0.45 0.45,-0.45 c 0.1501,-0.15 0.3001,-0.3 0.4501,-0.45 l 0.45,-0.45 c 0.15,-0.15 0.3001,-0.3 0.4501,-0.45 l 0.45,-0.45 c 0.15,-0.15 0.3,-0.3 0.4501,-0.45 l 0.45,-0.45 0.45,-0.45 c 0.15,-0.15 0.3001,-0.3 0.4501,-0.45 l 0.45,-0.45 c 0.15,-0.15 0.3,-0.3 0.4501,-0.45 l 0.45,-0.45 0.45,-0.45 c 0.15,-0.15 0.3001,-0.3 0.4501,-0.45 l 0.45,-0.45 c 0.15,-0.15 0.3,-0.3 0.4501,-0.45 l 0.45,-0.45 0.45,-0.45 c 0.1501,-0.15 0.3001,-0.3 0.4501,-0.45 l 0.45,-0.45 c 0.15,-0.15 0.3,-0.301 0.4501,-0.451 l 0.45,-0.45 0.45,-0.45 c 0.1501,-0.15 0.3001,-0.3 0.4501,-0.45 l 0.45,-0.45 c 0.15,-0.15 0.3,-0.3 0.4501,-0.45 l 0.45,-0.45 0.45,-0.45 c 0.1501,-0.15 0.3001,-0.3 0.4501,-0.45 l 0.45,-0.45 c 0.15,-0.15 0.3001,-0.3 0.4501,-0.45 l 0.45,-0.45 0.45,-0.45 c 0.1501,-0.15 0.3001,-0.3 0.4501,-0.45 l 0.45,-0.45 c 0.15,-0.15 0.3001,-0.3 0.4501,-0.45 l 0.45,-0.45 0.45,-0.45 c 0.1501,-0.15 0.3001,-0.3 0.4501,-0.45"
       id="path526" />
    <text
       xml:space="preserve"
       style="font-size:1.76389px;fill:none;stroke:#000000;stroke-width:0.3"
       x="67.168556"
       y="183.96146"
       id="text368"><tspan
         sodipodi:role="line"
         id="tspan366"
         style="stroke-width:0.3"
         x="67.168556"
         y="183.96146">$f(x)=e^x$</tspan></text>
    <text
       xml:space="preserve"
       style="font-size:1.76389px;fill:none;stroke:#000000;stroke-width:0.3"
       x="79.415482"
       y="204.59447"
       id="text368-5"><tspan
         sodipodi:role="line"
         id="tspan366-7"
         style="stroke-width:0.3"
         x="79.415482"
         y="204.59447">$g(x)=x$</tspan></text>
  </g>
</svg>
