<?xml version="1.0" encoding="UTF-8" standalone="no"?>
<!-- Created with Inkscape (http://www.inkscape.org/) -->

<svg
   width="100mm"
   height="100mm"
   viewBox="0 0 100 100"
   version="1.1"
   id="svg8"
   inkscape:version="1.2.2 (b0a84865, 2022-12-01)"
   sodipodi:docname="sine-limit.svg"
   xmlns:inkscape="http://www.inkscape.org/namespaces/inkscape"
   xmlns:sodipodi="http://sodipodi.sourceforge.net/DTD/sodipodi-0.dtd"
   xmlns="http://www.w3.org/2000/svg"
   xmlns:svg="http://www.w3.org/2000/svg"
   xmlns:rdf="http://www.w3.org/1999/02/22-rdf-syntax-ns#"
   xmlns:cc="http://creativecommons.org/ns#"
   xmlns:dc="http://purl.org/dc/elements/1.1/">
  <defs
     id="defs2" />
  <sodipodi:namedview
     id="base"
     pagecolor="#ffffff"
     bordercolor="#666666"
     borderopacity="1.0"
     inkscape:pageopacity="0.0"
     inkscape:pageshadow="2"
     inkscape:zoom="1.4142136"
     inkscape:cx="55.507881"
     inkscape:cy="248.19447"
     inkscape:document-units="mm"
     inkscape:current-layer="layer1"
     showgrid="false"
     showborder="true"
     width="200mm"
     showguides="true"
     inkscape:guide-bbox="true"
     inkscape:window-width="1440"
     inkscape:window-height="872"
     inkscape:window-x="0"
     inkscape:window-y="0"
     inkscape:window-maximized="0"
     inkscape:showpageshadow="2"
     inkscape:pagecheckerboard="0"
     inkscape:deskcolor="#d1d1d1">
    <inkscape:grid
       type="xygrid"
       id="grid815"
       units="mm"
       spacingx="10"
       spacingy="10"
       empspacing="4"
       dotted="false"
       originx="0"
       originy="0" />
  </sodipodi:namedview>
  <metadata
     id="metadata5">
    <rdf:RDF>
      <cc:Work
         rdf:about="">
        <dc:format>image/svg+xml</dc:format>
        <dc:type
           rdf:resource="http://purl.org/dc/dcmitype/StillImage" />
      </cc:Work>
    </rdf:RDF>
  </metadata>
  <g
     inkscape:label="Layer 1"
     inkscape:groupmode="layer"
     id="layer1"
     transform="translate(0,-177)">
    <path
       id="path3867"
       style="fill:none;stroke:#000000;stroke-width:0.3;stroke-dasharray:none;stroke-opacity:1"
       d="m 11.511016,199.47173 a 68.328728,68.328728 0 0 0 -0.711684,0.0245 c 0.01902,1.06618 0.03726,1.99999 0.05899,3.81302 0.03137,2.61878 0.06485,6.11958 0.09831,10.79913 0.03344,4.67955 0.06694,10.53754 0.09831,17.87175 0.03137,7.33422 0.06043,16.14473 0.08552,26.7275 0.0059,2.49493 0.0093,6.11271 0.01484,8.80859 H 79.82984 A 68.328728,68.328728 0 0 0 11.511016,199.47173 Z" />
    <path
       style="fill:none;stroke:#000000;stroke-width:0.3;stroke-dasharray:none;stroke-opacity:1"
       d="M 11.221865,267.32833 79.818212,206.55126"
       id="path3876" />
    <path
       style="fill:none;stroke:#000000;stroke-width:0.3;stroke-dasharray:none;stroke-opacity:1"
       d="m 62.252296,222.12313 v 45.42778"
       id="path4604" />
    <rect
       style="fill:none;stroke:#000000;stroke-width:0.3;stroke-dasharray:none;stroke-opacity:1"
       id="rect4774"
       width="2.6192415"
       height="2.6192415"
       x="59.633545"
       y="264.81479" />
    <rect
       style="fill:none;stroke:#000000;stroke-width:0.3;stroke-dasharray:none;stroke-opacity:1"
       id="rect4774-4"
       width="2.6192415"
       height="2.6192415"
       x="77.053551"
       y="264.86664" />
    <path
       style="fill:none;stroke:#000000;stroke-width:0.281055;stroke-dasharray:none;stroke-opacity:1"
       d="M 79.681426,267.36382 V 206.60768"
       id="path6228" />
    <text
       xml:space="preserve"
       style="font-size:5.29167px;fill:#000000;fill-opacity:1;stroke:none;stroke-width:0.3;stroke-dasharray:none;stroke-opacity:1"
       x="30.370005"
       y="236.9398"
       id="text7758"><tspan
         sodipodi:role="line"
         id="tspan7756"
         style="fill:#000000;fill-opacity:1;stroke:none;stroke-width:0.3"
         x="30.370005"
         y="236.9398">$1$</tspan></text>
    <text
       xml:space="preserve"
       style="font-size:5.29167px;fill:#000000;fill-opacity:1;stroke:none;stroke-width:0.3;stroke-dasharray:none;stroke-opacity:1"
       x="60.720818"
       y="217.22406"
       id="text8565"><tspan
         sodipodi:role="line"
         id="tspan8563"
         style="stroke-width:0.3"
         x="60.720818"
         y="217.22406">$P$</tspan></text>
    <text
       xml:space="preserve"
       style="font-size:5.29167px;fill:#000000;fill-opacity:1;stroke:none;stroke-width:0.3;stroke-dasharray:none;stroke-opacity:1"
       x="6.1924648"
       y="273.79782"
       id="text8565-2"><tspan
         sodipodi:role="line"
         id="tspan8563-9"
         style="stroke-width:0.3"
         x="6.1924648"
         y="273.79782">$O$</tspan></text>
    <text
       xml:space="preserve"
       style="font-size:5.29167px;fill:#000000;fill-opacity:1;stroke:none;stroke-width:0.3;stroke-dasharray:none;stroke-opacity:1"
       x="78.862564"
       y="273.42361"
       id="text8565-2-4"><tspan
         sodipodi:role="line"
         id="tspan8563-9-8"
         style="stroke-width:0.3"
         x="78.862564"
         y="273.42361">$R$</tspan></text>
    <text
       xml:space="preserve"
       style="font-size:5.29167px;fill:#000000;fill-opacity:1;stroke:none;stroke-width:0.3;stroke-dasharray:none;stroke-opacity:1"
       x="77.846756"
       y="203.45245"
       id="text8565-2-4-1"><tspan
         sodipodi:role="line"
         id="tspan8563-9-8-5"
         style="stroke-width:0.3"
         x="77.846756"
         y="203.45245">$Q$</tspan></text>
    <text
       xml:space="preserve"
       style="font-size:5.29167px;fill:#000000;fill-opacity:1;stroke:none;stroke-width:0.3;stroke-dasharray:none;stroke-opacity:1"
       x="60.199123"
       y="273.75647"
       id="text8565-2-4-1-8"><tspan
         sodipodi:role="line"
         id="tspan8563-9-8-5-7"
         style="stroke-width:0.3"
         x="60.199123"
         y="273.75647">$S$</tspan></text>
    <path
       style="fill:#fff5cc;fill-opacity:1;stroke:none;stroke-width:0.801759;stroke-dasharray:none;stroke-opacity:1"
       d="m 298.87925,299.40103 c -6.51901,-42.26944 -27.35726,-87.55998 -56.13449,-122.00455 l -5.80328,-6.94617 10.359,-9.21117 c 5.69745,-5.06615 10.77496,-9.21118 11.28335,-9.21118 0.51458,0 0.92436,0.78367 0.92436,1.76777 0,1.09994 0.40069,1.76776 1.06066,1.76776 0.65997,0 1.06066,-0.66782 1.06066,-1.76776 0,-1.06067 0.40406,-1.76777 1.01015,-1.76777 1.85419,0 3.33191,-2.20174 3.10018,-4.61914 -0.21141,-2.20528 0.54884,-2.99034 17.10287,-17.66085 l 17.32412,-15.35297 0.18167,48.57015 c 0.0999,26.71358 0.0999,70.21839 0,96.67736 l -0.18167,48.10721 z"
       id="path21397"
       transform="matrix(0.26458333,0,0,0.26458333,0,177)" />
    <path
       style="fill:#fff5cc;fill-opacity:1;stroke:none;stroke-width:0.801759;stroke-dasharray:none;stroke-opacity:1"
       d="m 236.2024,257.21009 0.0287,-84.32248 2.14661,2.47487 c 28.922,33.34487 49.47873,75.83837 57.81001,119.50105 1.54885,8.11723 3.26868,21.08847 4.00797,30.22881 l 0.47185,5.83363 h -5.02335 -5.02334 v 5.3033 5.30331 h -27.22361 -27.22361 z"
       id="path21399"
       transform="matrix(0.26458333,0,0,0.26458333,0,177)" />
    <path
       style="fill:#ffeda3;fill-opacity:1;stroke:none;stroke-width:0.801759;stroke-dasharray:none;stroke-opacity:1"
       d="m 292.0351,336.93638 v -3.88909 h 4.24264 4.24264 v 3.88909 3.88909 h -4.24264 -4.24264 z"
       id="path21401"
       transform="matrix(0.26458333,0,0,0.26458333,0,177)" />
    <path
       style="fill:#ffeda3;fill-opacity:1;stroke:none;stroke-width:0.801759;stroke-dasharray:none;stroke-opacity:1"
       d="m 236.20535,257.56365 0.0317,-83.96894 3.19093,3.53554 c 12.75059,14.12759 28.65449,39.32499 38.09244,60.35189 12.8523,28.63377 18.85734,52.38141 22.60091,89.37797 l 0.41142,4.06586 h -4.95593 -4.95592 v 5.3033 5.30331 h -27.22361 -27.22361 z"
       id="path21472"
       transform="matrix(0.26458333,0,0,0.26458333,0,177)" />
    <path
       style="fill:#ffeda3;fill-opacity:1;stroke:none;stroke-width:0.801759;stroke-dasharray:none;stroke-opacity:1"
       d="m 292.0351,336.93638 v -3.88909 h 4.24264 4.24264 v 3.88909 3.88909 h -4.24264 -4.24264 z"
       id="path21474"
       transform="matrix(0.26458333,0,0,0.26458333,0,177)" />
    <path
       style="fill:#ffe57a;fill-opacity:1;stroke:none;stroke-width:0.801759;stroke-dasharray:none;stroke-opacity:1"
       d="m 46.861623,338.8197 c 1.644173,-1.49207 43.718756,-38.76427 93.499077,-82.8271 49.78031,-44.06282 91.22561,-80.76307 92.10065,-81.55609 l 1.59099,-1.44187 v 78.96567 78.96566 h -4.94974 -4.94975 v 5.3033 5.30331 H 134.01253 43.872218 Z"
       id="path21476"
       transform="matrix(0.26458333,0,0,0.26458333,0,177)" />
    <path
       style="fill:#ffe57a;fill-opacity:1;stroke:none;stroke-width:0.801759;stroke-dasharray:none;stroke-opacity:1"
       d="m 226.27417,336.93638 v -3.88909 h 3.88909 3.88908 v 3.88909 3.88909 h -3.88908 -3.88909 z"
       id="path21547"
       transform="matrix(0.26458333,0,0,0.26458333,0,177)" />
    <text
       xml:space="preserve"
       style="font-size:5.29167px;fill:#ffe57a;fill-opacity:1;stroke:none;stroke-width:0.3;stroke-dasharray:none;stroke-opacity:1"
       x="29.747097"
       y="263.80914"
       id="text22360"><tspan
         sodipodi:role="line"
         id="tspan22358"
         style="stroke-width:0.3"
         x="29.747097"
         y="263.80914" /></text>
    <path
       style="fill:none;stroke-width:0.3;stroke:#000000;stroke-opacity:1"
       d="M 62.300524,222.27546 79.69977,267.36382"
       id="path372" />
    <path
       style="fill:#ffe57a;stroke:none;stroke-width:0.801759;stroke-opacity:1;fill-opacity:1"
       d="m 236.24677,258.97785 c 0.11206,-71.9353 0.25722,-82.23636 1.12853,-80.07984 0.54996,1.36118 13.96029,36.04477 29.80073,77.07464 l 28.8008,74.59976 -2.67797,0.21744 -2.67798,0.21743 v 5.26264 5.26265 h -27.25136 -27.25135 z"
       id="path999"
       transform="matrix(0.26458333,0,0,0.26458333,0,177)" />
    <path
       style="fill:#ffeb99;fill-opacity:1;stroke:none;stroke-width:0.801759;stroke-opacity:1"
       d="m 268.77465,254.87856 c -16.09897,-41.80597 -29.11355,-76.16816 -28.92129,-76.36041 0.55738,-0.55738 10.11302,11.95312 16.49298,21.59306 12.40396,18.74202 22.92017,39.92012 29.93432,60.28329 6.18254,17.9489 9.92539,35.44753 12.70412,59.39453 1.16828,10.06811 1.18521,11.13518 0.17651,11.11866 -0.82356,-0.0135 -8.78195,-19.92583 -30.38664,-76.02913 z"
       id="path1139"
       transform="matrix(0.26458333,0,0,0.26458333,0,177)" />
    <path
       style="fill:#ffe166;fill-opacity:1;stroke:none;stroke-width:0.801759;stroke-opacity:1"
       d="m 236.50835,260.74562 c 0.28626,-44.43282 0.59792,-80.8712 0.69259,-80.97417 0.0947,-0.10297 13.23816,33.62603 29.20777,74.95332 l 29.03565,75.14053 -2.41174,0.60058 -2.41174,0.60057 v 5.23306 5.23306 h -27.31651 -27.3165 z"
       id="path1279"
       transform="matrix(0.26458333,0,0,0.26458333,0,177)" />
    <path
       style="fill:#ffe166;fill-opacity:1;stroke:none;stroke-width:0.801759;stroke-opacity:1"
       d="m 44.936635,340.92529 c 3.668208,-3.31614 187.009295,-165.4562 187.908965,-166.17972 1.13616,-0.91371 1.20674,3.62514 1.20674,77.60497 v 78.57542 h -4.94975 -4.94975 v 5.30331 5.3033 h -89.94398 c -50.15559,0 -89.646815,-0.26865 -89.272225,-0.60728 z m 43.45171,-8.93867 c 0,-1.25793 0.382896,-1.76776 1.327632,-1.76776 3.449574,0 3.925907,-5.34902 0.616912,-6.92765 -1.175677,-0.56089 -1.944544,-1.49383 -1.944544,-2.35951 0,-1.22304 0.309316,-1.36387 2.121321,-0.96589 1.826306,0.40113 2.12132,0.26143 2.12132,-1.00447 0,-1.16237 -0.444386,-1.4704 -2.12132,-1.4704 -1.649916,0 -2.121321,-0.31427 -2.121321,-1.41422 0,-0.77781 -0.318198,-1.41421 -0.707106,-1.41421 -0.388909,0 -0.707107,0.6364 -0.707107,1.41421 0,0.89043 -0.471405,1.41422 -1.272792,1.41422 -1.851407,0 -2.969849,1.40787 -2.969849,3.73837 0,1.6188 0.439085,2.20706 2.12132,2.84203 1.547292,0.58404 2.121321,1.26104 2.121321,2.50185 0,1.51301 -0.234574,1.65421 -2.121321,1.27686 -1.784176,-0.35683 -2.12132,-0.20231 -2.12132,0.97227 0,1.08031 0.480355,1.39654 2.12132,1.39654 1.791337,0 2.121321,0.27498 2.121321,1.76776 0,0.97228 0.318198,1.76777 0.707107,1.76777 0.388908,0 0.707106,-0.79549 0.707106,-1.76777 z m 15.556345,1.56969 c 0,-0.10894 -1.59099,-4.31549 -3.53553,-9.34786 -1.944543,-5.03237 -3.535534,-9.23891 -3.535534,-9.34786 0,-0.10894 -0.477297,-0.19808 -1.06066,-0.19808 -1.55998,0 -1.385648,0.78554 2.298097,10.35517 2.520527,6.54783 3.667577,8.7268 4.596197,8.73105 0.68059,0.003 1.23743,-0.0835 1.23743,-0.19242 z m 58.68987,-1.41466 c 0,-1.1426 0.6184,-1.84616 2.12132,-2.41345 1.68223,-0.63498 2.12132,-1.22323 2.12132,-2.84204 0,-2.3305 -1.11844,-3.73837 -2.96985,-3.73837 -0.8967,0 -1.27279,-0.53896 -1.27279,-1.82395 0,-1.67088 0.18352,-1.78364 2.18675,-1.34365 1.87536,0.41189 2.1514,0.29402 1.9385,-0.82771 -0.15554,-0.81947 -0.97227,-1.39156 -2.18676,-1.53173 -1.36775,-0.15787 -1.93849,-0.6263 -1.93849,-1.59099 0,-0.75199 -0.3182,-1.36725 -0.70711,-1.36725 -0.38891,0 -0.70711,0.6364 -0.70711,1.41421 0,0.89043 -0.47141,1.41422 -1.27279,1.41422 -1.80109,0 -2.96985,1.39138 -2.96985,3.53553 0,2.14415 1.16876,3.53553 2.96985,3.53553 0.9024,0 1.27279,0.54016 1.27279,1.85616 0,1.68527 -0.19529,1.81709 -2.12132,1.43189 -1.76424,-0.35285 -2.12132,-0.19709 -2.12132,0.92531 0,0.94661 0.58061,1.41637 1.94454,1.57331 1.39231,0.1602 2.00872,0.67558 2.1705,1.81473 0.29548,2.08044 1.54182,2.06286 1.54182,-0.0218 z m -51.73918,-2.8617 c 0.1898,-1.00017 -0.12866,-1.24004 -1.40816,-1.06066 -1.53095,0.21463 -1.66927,-0.0432 -1.86717,-3.48051 -0.20522,-3.56449 -0.14187,-3.71231 1.59099,-3.71231 1.13279,0 1.80472,-0.3949 1.80472,-1.06066 0,-0.65996 -0.66782,-1.06066 -1.76777,-1.06066 -1.29636,0 -1.76776,-0.37712 -1.76776,-1.41421 0,-0.94281 -0.47141,-1.41422 -1.41422,-1.41422 -0.9428,0 -1.41421,0.47141 -1.41421,1.41422 0,0.77781 -0.3182,1.41421 -0.70711,1.41421 -0.3889,0 -0.7071,0.4773 -0.7071,1.06066 0,0.58336 0.3182,1.06066 0.7071,1.06066 0.38891,0 0.70711,1.72736 0.70711,3.83858 0,2.60119 0.37057,4.20914 1.14956,4.98813 1.49833,1.49834 4.77079,1.13008 5.09402,-0.57323 z m 22.34821,0.95641 c 0.9976,-0.37929 1.8138,-1.17478 1.8138,-1.76777 0,-1.26209 -0.64163,-1.33689 -3.18225,-0.37095 -2.14449,0.81533 -4.59592,-0.1409 -4.59592,-1.79275 0,-0.78408 0.94504,-1.03578 3.88908,-1.03578 3.57564,0 3.88909,-0.1298 3.88909,-1.61043 0,-2.91972 -1.91435,-4.75353 -4.9623,-4.75353 -3.47908,0 -5.6443,2.10339 -5.6443,5.48312 0,5.21675 3.80213,7.74554 8.7928,5.84809 z m 10.1787,-0.95641 c 0.1755,-0.92481 -0.12449,-1.23155 -1.05461,-1.07831 -2.21202,0.36443 -3.06765,-0.76098 -3.06765,-4.03492 0,-3.01776 0.0828,-3.14025 2.12132,-3.14025 1.41422,0 2.12132,-0.35355 2.12132,-1.06066 0,-0.70711 -0.7071,-1.06066 -2.12132,-1.06066 -1.64991,0 -2.12132,-0.31427 -2.12132,-1.41421 0,-0.78568 -0.4714,-1.41422 -1.06066,-1.41422 -0.58925,0 -1.06066,0.62854 -1.06066,1.41422 0,0.77781 -0.3182,1.41421 -0.7071,1.41421 -0.38891,0 -0.70711,0.4773 -0.70711,1.06066 0,0.58336 0.3182,1.06066 0.70711,1.06066 0.39218,0 0.7071,1.8739 0.7071,4.2075 0,3.25478 0.2802,4.37451 1.23744,4.94505 1.86516,1.11168 4.72193,0.59862 5.00614,-0.89907 z m 9.48955,0.94669 c 1.04937,-0.006 1.23743,-0.69861 1.23743,-4.55347 0,-5.68666 -0.91189,-6.76802 -5.70736,-6.76802 -3.03936,0 -3.48502,0.18495 -3.48502,1.44625 0,1.2647 0.30494,1.38905 2.42899,0.99057 2.77733,-0.52103 4.67722,0.19374 3.12657,1.17628 -0.52765,0.33434 -1.65259,0.61276 -2.49985,0.61871 -3.3484,0.0236 -4.99534,4.33415 -2.5791,6.75039 0.86201,0.86201 1.87092,1.07002 3.71231,0.7654 1.39072,-0.23008 3.08544,-0.42183 3.76603,-0.42611 z m -37.65344,-4.20277 c 0,-3.56769 0.21054,-4.26181 1.40789,-4.64184 2.27796,-0.72299 2.83475,0.18759 2.83475,4.63592 0,3.7295 0.1587,4.20091 1.41422,4.20091 1.26477,0 1.41421,-0.47141 1.41421,-4.46105 0,-5.68002 -0.97185,-7.14158 -4.4767,-6.73241 -2.52471,0.29475 -2.59437,0.24025 -2.59437,-2.03 0,-1.86148 -0.28577,-2.33289 -1.41421,-2.33289 -1.3285,0 -1.41421,0.47141 -1.41421,7.77817 0,7.30677 0.0857,7.77818 1.41421,7.77818 1.25529,0 1.41421,-0.47141 1.41421,-4.19499 z"
       id="path1350"
       transform="matrix(0.26458333,0,0,0.26458333,0,177)" />
    <path
       style="fill:#fffae5;fill-opacity:1;stroke:none;stroke-width:0.801759;stroke-opacity:1"
       d="m 298.89407,297.69195 c -1.17946,-8.10932 -5.00989,-23.39604 -8.59332,-34.29468 -10.2951,-31.31161 -25.18813,-58.63995 -46.15066,-84.68531 l -6.69454,-8.31778 3.70676,-3.33269 c 7.55939,-6.79655 16.58256,-14.32643 17.16756,-14.32643 0.33198,0 0.77002,0.6364 0.97343,1.41421 0.51699,1.97699 2.08481,1.76515 2.61657,-0.35355 0.24403,-0.97227 0.90372,-1.76777 1.46599,-1.76777 1.27981,0 2.48628,-2.18167 2.48628,-4.49595 0,-1.86596 6.43396,-8.18874 24.74874,-24.32108 l 8.83883,-7.78557 0.18185,46.64062 c 0.27611,70.81945 -0.1054,140.04067 -0.74749,135.62598 z"
       id="path1352"
       transform="matrix(0.26458333,0,0,0.26458333,0,177)" />
    <path
       style="fill:#fff0b3;fill-opacity:1;stroke:none;stroke-width:0.801759;stroke-opacity:1"
       d="m 298.18156,328.95654 c -1.55159,-2.86335 -11.04496,-26.5945 -22.43298,-56.07708 -13.49851,-34.94642 -34.39394,-89.91439 -34.91955,-91.86013 -0.41497,-1.53617 -0.13935,-1.39722 2.10389,1.06066 6.82934,7.4828 19.75964,27.33018 27.52083,42.24312 12.22036,23.48112 19.24448,43.15532 24.04847,67.35843 2.56831,12.93949 5.53901,34.6187 5.16663,37.70437 l -0.22852,1.89361 z"
       id="path1464"
       transform="matrix(0.26458333,0,0,0.26458333,0,177)" />
    <path
       style="fill:#ffe680;fill-opacity:1;stroke:none;stroke-width:0.801759;stroke-opacity:1"
       d="m 236.51325,273.47354 c 0.22253,-37.43246 0.59808,-73.30929 0.83455,-79.72629 l 0.42994,-11.66726 1.25725,2.92742 c 3.08672,7.18721 55.82853,143.65159 55.82853,144.45098 0,0.32103 -0.95459,0.77461 -2.12132,1.00796 l -2.12132,0.42426 v 5.32098 5.32098 h -27.25613 -27.25612 z"
       id="path1466"
       transform="matrix(0.26458333,0,0,0.26458333,0,177)" />
    <path
       style="fill:#ffe680;fill-opacity:1;stroke:none;stroke-width:0.801759;stroke-opacity:1"
       d="m 59.799641,340.84811 -14.093015,-0.3762 75.575034,-66.82159 c 41.56628,-36.75188 83.70542,-74.02369 93.64254,-82.82627 l 18.06748,-16.00467 0.4373,7.87295 c 0.24052,4.33012 0.47917,39.4541 0.53033,78.05329 l 0.093,70.18034 h -4.94975 -4.94975 v 5.30331 5.3033 l -75.13009,-0.15413 c -41.32155,-0.0848 -81.47195,-0.32342 -89.223109,-0.53033 z m 28.588704,-8.46934 c 0,-0.80447 0.807384,-1.76069 1.944544,-2.30302 2.958534,-1.41098 3.066772,-4.8701 0.215909,-6.90009 -2.730741,-1.94446 -2.743233,-2.8563 -0.03913,-2.8563 1.649915,0 2.12132,-0.31426 2.12132,-1.41421 0,-1.0507 -0.471405,-1.41421 -1.833966,-1.41421 -1.239286,0 -1.953885,-0.45858 -2.203791,-1.41422 -0.425415,-1.62679 -1.619097,-1.91589 -1.619097,-0.39214 0,0.56215 -0.875045,1.4394 -1.944544,1.94947 -2.771572,1.32181 -3.144589,5.15837 -0.613651,6.31154 3.175138,1.44669 3.251977,4.22363 0.100198,3.62113 -1.438729,-0.27503 -1.784644,-0.0602 -1.784644,1.10852 0,1.05583 0.528304,1.51047 1.944544,1.67343 1.392297,0.1602 2.008715,0.67558 2.1705,1.81473 0.276622,1.94773 1.54181,2.12445 1.54181,0.21537 z m 15.530025,0.84529 c -0.0145,-0.29168 -1.55469,-4.5078 -3.42271,-9.36916 -2.253086,-5.86346 -3.791425,-8.9158 -4.569878,-9.06746 -1.695256,-0.33028 -1.481224,1.06864 1.264202,8.26288 3.184886,8.34581 4.443366,10.70407 5.712206,10.70407 0.57338,0 1.03066,-0.23865 1.01618,-0.53033 z m 58.97613,-1.11621 c 0.22729,-0.9056 1.23637,-2.02157 2.2424,-2.47996 2.585,-1.1778 2.24869,-4.99853 -0.5578,-6.33699 -2.67099,-1.27384 -2.54037,-2.97154 0.22862,-2.97154 1.68813,0 2.12053,-0.27619 1.93732,-1.23743 -0.12971,-0.68059 -0.98538,-1.34395 -1.90148,-1.47412 -0.9161,-0.13018 -1.825,-0.84613 -2.01979,-1.59099 -0.41337,-1.58075 -1.60343,-1.82733 -1.60343,-0.33224 0,0.56215 -0.87504,1.44148 -1.94454,1.95408 -1.56916,0.75208 -1.94455,1.40608 -1.94455,3.38781 0,1.99393 0.37339,2.63477 1.98521,3.4073 2.61321,1.25248 2.3288,3.40495 -0.40733,3.08283 -1.52516,-0.17955 -1.93143,0.0646 -1.93143,1.16079 0,0.88084 0.62882,1.54598 1.72064,1.82001 0.94635,0.23752 1.92239,1.06751 2.16897,1.84442 0.60053,1.8921 1.52022,1.78595 2.02719,-0.23397 z m -52.00971,-2.77288 c 0.15833,-0.83489 -0.21285,-1.23743 -1.14102,-1.23743 -1.06161,0 -1.48051,-0.65555 -1.83483,-2.87133 -0.5317,-3.32504 -0.17048,-4.19974 1.73434,-4.19974 0.75486,0 1.37248,-0.4773 1.37248,-1.06066 0,-0.60506 -0.63589,-1.06066 -1.48041,-1.06066 -0.88573,0 -1.62897,-0.56809 -1.85024,-1.41421 -0.54659,-2.09017 -2.55422,-1.71664 -3.6115,0.67193 -0.67425,1.52324 -0.72083,2.46471 -0.17262,3.48905 0.41295,0.7716 0.75081,2.67388 0.75081,4.2273 0,1.66485 0.47195,3.29636 1.14956,3.97396 1.46871,1.46872 4.77045,1.13214 5.08343,-0.51821 z m 22.80487,0.85901 c 0.75225,-0.40259 1.36773,-1.22606 1.36773,-1.82992 0,-0.89073 -0.5384,-1.00698 -2.85288,-0.61595 -1.89421,0.32003 -3.21233,0.18368 -3.92256,-0.40576 -1.50711,-1.25079 -0.0486,-2.04865 3.77024,-2.06241 2.78282,-0.01 3.0052,-0.1506 3.0052,-1.8997 0,-2.76055 -1.88729,-4.47509 -4.92601,-4.47509 -3.6184,0 -5.68059,2.07523 -5.68059,5.71654 0,4.9577 4.8836,7.90316 9.23887,5.57229 z m 9.72229,-0.85901 c 0.16111,-0.85043 -0.21631,-1.23743 -1.20676,-1.23743 -1.77024,0 -3.06721,-2.24959 -2.77197,-4.80794 0.17196,-1.49009 0.64754,-1.95873 2.16491,-2.13332 2.52199,-0.29019 2.61832,-2.25113 0.11058,-2.25113 -1.23929,0 -1.95389,-0.45857 -2.20379,-1.41421 -0.53357,-2.04036 -1.83734,-1.73874 -2.9044,0.67193 -0.67425,1.52324 -0.72083,2.46471 -0.17261,3.48905 0.41294,0.7716 0.7508,2.79207 0.7508,4.48994 0,1.69788 0.39619,3.48323 0.88041,3.96745 1.28253,1.28254 5.06689,0.7351 5.35283,-0.77434 z m 8.52762,1.14905 c 2.19443,-0.43888 2.2097,-0.47275 2.2097,-4.89924 0,-5.59013 -0.93092,-6.67963 -5.70736,-6.67963 -2.97923,0 -3.48502,0.19935 -3.48502,1.37355 0,1.10844 0.58005,1.41799 3.0052,1.60374 l 3.0052,0.23019 -2.9325,0.87881 c -2.90881,0.87172 -3.78501,1.89175 -3.78501,4.40632 0,2.95305 2.77905,4.06841 7.68979,3.08626 z m -36.68117,-3.75019 c 0,-4.29008 1.75308,-6.72042 3.31091,-4.58997 0.51245,0.70083 0.93173,2.8044 0.93173,4.67461 0,2.92898 0.19606,3.40039 1.41422,3.40039 1.25878,0 1.41421,-0.47141 1.41421,-4.28913 0,-5.7876 -0.75148,-7.02458 -4.26752,-7.02458 -2.64365,0 -2.80355,-0.12099 -2.80355,-2.12132 0,-1.64991 -0.31427,-2.12132 -1.41421,-2.12132 -1.3285,0 -1.41421,0.47141 -1.41421,7.77817 0,7.30677 0.0857,7.77818 1.41421,7.77818 1.22292,0 1.41421,-0.47141 1.41421,-3.48503 z"
       id="path1537"
       transform="matrix(0.26458333,0,0,0.26458333,0,177)" />
    <text
       xml:space="preserve"
       style="font-size:5.29167px;fill:#000000;fill-opacity:1;stroke-width:0.3"
       x="23.94735"
       y="263.80914"
       id="text1041"><tspan
         sodipodi:role="line"
         id="tspan1039"
         style="stroke-width:0.3"
         x="23.94735"
         y="263.80914">$\theta$</tspan></text>
  </g>
</svg>
